<?xml version="1.0" encoding="UTF-8" ?>
<!DOCTYPE svg PUBLIC "-//W3C//DTD SVG 1.1//EN" "http://www.w3.org/Graphics/SVG/1.1/DTD/svg11.dtd">
<svg width="100pt" height="100pt" viewBox="0 0 100 100" version="1.1" xmlns="http://www.w3.org/2000/svg">
<g id="#fefefeff">
<path fill="#fefefe" opacity="1.00" d=" M 0.00 0.00 L 100.00 0.00 L 100.00 100.00 L 0.00 100.00 L 0.00 0.00 M 5.42 5.36 C 5.41 11.71 5.41 18.06 5.42 24.41 C 11.73 24.38 18.04 24.40 24.36 24.40 C 24.34 18.06 24.34 11.72 24.35 5.38 C 18.04 5.38 11.73 5.41 5.42 5.36 M 40.70 5.49 C 40.61 6.16 40.43 7.50 40.35 8.17 C 41.07 8.17 42.53 8.16 43.26 8.16 C 43.26 9.94 43.27 11.72 43.27 13.50 C 41.54 13.50 39.81 13.50 38.08 13.49 C 38.16 11.53 37.30 10.36 35.28 10.42 C 35.25 11.19 35.18 12.71 35.14 13.48 C 34.47 13.49 33.14 13.51 32.47 13.52 C 32.46 11.73 32.44 9.93 32.43 8.13 C 31.76 8.14 30.40 8.14 29.72 8.15 C 29.71 8.80 29.69 10.09 29.68 10.74 C 29.00 10.74 27.64 10.74 26.96 10.74 C 27.19 16.19 27.00 21.64 27.10 27.10 C 28.86 27.04 30.62 26.97 32.38 26.90 C 32.41 27.63 32.47 29.08 32.49 29.80 C 33.12 29.78 34.36 29.73 34.99 29.71 C 35.11 30.39 35.35 31.77 35.47 32.46 C 33.62 32.41 31.77 32.30 29.92 32.46 C 29.81 33.14 29.58 34.49 29.46 35.17 C 28.98 35.15 28.02 35.11 27.54 35.09 C 27.27 35.67 26.73 36.82 26.46 37.40 C 24.90 37.93 23.24 37.83 21.63 37.98 C 21.63 37.26 21.64 35.82 21.64 35.09 C 20.95 35.12 19.56 35.18 18.86 35.20 C 18.86 37.91 18.87 40.61 18.87 43.31 C 19.68 43.30 21.29 43.28 22.10 43.27 C 21.69 44.13 21.24 44.96 20.75 45.77 C 20.39 45.91 19.66 46.21 19.30 46.36 C 19.15 45.56 18.84 43.97 18.69 43.17 C 18.07 43.23 16.84 43.35 16.22 43.42 C 16.27 39.75 16.25 36.08 16.25 32.41 C 15.34 32.39 14.43 32.37 13.53 32.36 C 13.51 33.06 13.48 34.48 13.46 35.19 C 11.70 35.17 9.95 35.15 8.19 35.13 C 8.16 35.80 8.10 37.14 8.07 37.81 C 8.73 37.82 10.07 37.84 10.73 37.85 C 10.75 38.52 10.79 39.85 10.80 40.52 C 10.12 40.50 8.75 40.47 8.07 40.45 C 8.10 41.16 8.15 42.57 8.18 43.28 C 7.50 43.27 6.14 43.24 5.46 43.22 C 5.43 43.89 5.38 45.23 5.36 45.89 C 7.20 45.99 9.05 46.07 10.89 46.16 C 10.85 46.78 10.76 48.01 10.72 48.63 C 10.07 48.62 8.78 48.61 8.13 48.61 C 8.14 50.37 8.14 52.14 8.15 53.91 C 7.47 53.92 6.10 53.94 5.42 53.96 C 5.43 54.66 5.44 56.07 5.45 56.77 C 7.22 56.74 9.00 56.72 10.77 56.70 C 10.91 59.55 10.31 62.54 11.34 65.27 C 11.71 65.15 12.45 64.92 12.83 64.81 C 13.98 63.36 13.39 61.43 13.57 59.73 C 15.82 59.93 16.68 58.68 16.43 56.52 C 17.05 56.59 18.27 56.75 18.88 56.82 C 18.87 57.46 18.86 58.73 18.85 59.37 C 19.50 59.46 20.81 59.64 21.46 59.73 C 21.12 57.47 22.11 56.26 24.44 56.40 C 24.38 57.19 24.27 58.78 24.22 59.58 C 26.05 59.53 27.88 59.50 29.71 59.49 C 29.71 56.81 29.71 54.13 29.70 51.45 C 30.64 51.39 31.58 51.34 32.52 51.28 C 32.35 56.73 32.46 62.17 32.45 67.62 C 31.76 67.61 30.38 67.61 29.69 67.61 C 29.69 69.38 29.70 71.14 29.70 72.91 C 29.06 72.98 27.77 73.10 27.13 73.17 C 27.10 71.35 27.08 69.54 27.07 67.73 C 26.37 67.64 24.96 67.47 24.25 67.38 C 24.28 68.03 24.35 69.32 24.38 69.96 C 22.18 69.87 21.12 70.92 21.43 73.12 C 23.29 73.07 25.14 72.99 27.00 72.90 C 27.02 73.58 27.07 74.94 27.09 75.62 C 29.67 75.59 32.26 75.74 34.83 75.51 C 34.97 74.95 35.24 73.84 35.38 73.29 C 37.25 73.14 38.51 72.39 37.81 70.22 C 39.51 70.26 41.22 70.24 42.93 70.37 C 43.09 71.04 43.42 72.38 43.58 73.05 C 44.15 73.06 45.30 73.07 45.87 73.08 C 45.89 71.24 45.89 69.40 45.85 67.56 C 46.54 67.59 47.91 67.64 48.59 67.67 C 48.61 68.33 48.63 69.66 48.65 70.32 C 49.26 70.30 50.47 70.26 51.08 70.24 C 51.07 72.15 51.86 73.43 53.97 73.33 C 54.03 73.91 54.13 75.07 54.19 75.64 C 57.74 75.60 61.30 75.61 64.85 75.62 C 64.84 74.95 64.80 73.61 64.79 72.94 C 65.47 72.94 66.84 72.95 67.53 72.95 C 67.55 75.66 67.56 78.36 67.55 81.07 C 66.84 81.10 65.41 81.18 64.69 81.21 C 64.74 81.83 64.84 83.08 64.89 83.70 C 62.08 83.72 59.27 83.71 56.46 83.75 C 56.32 85.86 57.37 86.90 59.48 86.77 C 59.44 89.51 59.44 92.25 59.57 94.99 C 61.49 94.88 62.61 93.87 62.51 91.84 C 63.00 91.83 63.99 91.81 64.48 91.80 C 64.66 92.49 65.03 93.87 65.22 94.57 C 67.97 94.72 70.73 94.61 73.48 94.51 C 73.50 91.08 69.95 91.69 67.59 91.83 C 67.57 91.18 67.53 89.87 67.51 89.22 C 66.77 89.23 65.29 89.25 64.55 89.26 C 64.46 87.19 65.49 86.11 67.58 86.20 C 67.56 84.50 67.55 82.79 67.54 81.09 C 68.23 81.12 69.59 81.17 70.28 81.19 C 70.29 81.83 70.30 83.12 70.31 83.76 C 70.97 83.75 72.28 83.73 72.93 83.72 C 72.94 84.36 72.94 85.63 72.95 86.26 C 72.24 86.40 70.84 86.67 70.14 86.80 C 69.89 88.53 70.58 89.56 72.38 89.50 C 72.99 90.89 74.13 91.93 75.46 92.61 C 75.19 95.88 79.01 94.23 80.96 94.65 C 81.03 93.94 81.17 92.51 81.24 91.80 C 79.33 91.81 77.42 91.83 75.52 91.85 C 75.57 91.21 75.67 89.92 75.72 89.28 C 77.44 89.28 79.16 89.28 80.89 89.26 C 80.98 89.91 81.17 91.21 81.26 91.86 C 83.95 91.83 86.63 91.83 89.32 91.85 C 89.25 90.07 89.21 88.29 89.17 86.51 C 90.98 86.50 92.80 86.51 94.61 86.51 C 94.59 85.57 94.58 84.63 94.56 83.70 C 91.87 83.71 89.18 83.72 86.49 83.74 C 86.48 85.59 86.48 87.43 86.48 89.27 C 84.69 89.28 82.91 89.29 81.12 89.33 C 81.11 88.62 81.10 87.21 81.09 86.51 C 81.76 86.51 83.09 86.52 83.76 86.52 C 83.76 85.82 83.76 84.41 83.76 83.70 C 84.44 83.72 85.80 83.77 86.48 83.79 C 86.49 83.12 86.51 81.78 86.52 81.12 C 87.20 81.14 88.55 81.18 89.22 81.20 C 89.22 78.34 89.23 75.49 89.24 72.64 C 89.83 72.76 90.99 72.99 91.57 73.11 C 91.49 75.04 92.71 75.83 94.46 76.01 C 94.54 73.23 94.84 70.41 94.38 67.66 C 93.82 67.73 92.70 67.86 92.14 67.93 C 92.04 68.48 91.83 69.60 91.73 70.16 C 91.00 70.22 89.56 70.34 88.83 70.41 C 88.96 68.64 89.61 67.42 91.49 67.36 C 91.60 66.69 91.81 65.35 91.92 64.68 C 91.24 64.73 89.88 64.84 89.20 64.89 C 89.24 65.58 89.31 66.95 89.35 67.64 C 88.63 67.64 87.21 67.64 86.50 67.64 C 86.49 65.16 86.49 62.68 86.53 60.21 C 88.46 59.13 89.72 57.27 91.54 56.04 C 91.63 56.79 91.82 58.28 91.91 59.03 C 90.58 59.53 89.30 60.20 88.31 61.23 C 89.16 61.50 90.87 62.06 91.72 62.34 C 91.87 63.04 92.17 64.43 92.32 65.13 C 92.89 65.03 94.03 64.83 94.60 64.72 C 94.57 62.15 94.72 59.57 94.47 57.01 C 93.99 56.89 93.04 56.65 92.56 56.53 C 91.98 55.14 90.92 53.96 89.47 53.46 C 89.69 50.28 86.06 51.34 84.18 51.87 C 83.94 52.57 83.45 53.96 83.21 54.65 C 82.00 54.09 80.97 53.34 80.81 51.92 C 81.55 51.63 83.02 51.05 83.75 50.76 C 85.03 48.79 82.31 48.80 81.09 48.26 C 81.09 47.72 81.07 46.66 81.07 46.13 C 82.85 46.08 84.63 46.04 86.42 45.99 C 86.48 46.75 86.60 48.26 86.66 49.01 C 88.53 48.86 89.58 47.82 89.55 45.87 C 88.79 45.92 87.26 46.01 86.50 46.06 C 86.50 43.28 86.49 40.51 86.51 37.74 C 88.32 37.82 90.12 37.92 91.92 38.07 C 91.89 38.68 91.84 39.90 91.81 40.51 C 91.15 40.51 89.85 40.52 89.19 40.52 C 89.20 42.29 89.21 44.06 89.22 45.83 C 89.85 45.91 91.13 46.07 91.77 46.15 C 91.80 45.49 91.85 44.18 91.87 43.52 C 92.53 43.41 93.85 43.17 94.51 43.06 C 94.66 41.39 94.66 39.71 94.47 38.05 C 93.80 37.94 92.44 37.72 91.77 37.61 C 91.83 35.85 91.87 34.09 91.90 32.33 C 91.23 32.35 89.89 32.39 89.22 32.40 C 89.22 30.58 89.22 28.75 89.21 26.93 C 84.70 26.93 80.18 26.93 75.66 26.93 C 75.65 28.76 75.65 30.59 75.66 32.42 C 73.62 32.39 71.59 32.40 69.55 32.44 C 69.99 30.62 70.99 29.38 72.98 29.39 C 72.92 26.79 72.92 24.19 72.92 21.59 C 72.26 21.59 70.94 21.61 70.28 21.62 C 70.29 23.43 70.29 25.24 70.29 27.05 C 69.61 27.05 68.26 27.06 67.58 27.06 C 67.56 24.34 67.56 21.61 67.56 18.89 C 68.24 18.88 69.61 18.85 70.30 18.83 C 70.30 18.19 70.30 16.91 70.30 16.27 C 71.01 16.27 72.42 16.26 73.13 16.25 C 73.07 15.62 72.96 14.37 72.90 13.74 C 70.78 13.91 69.92 12.75 70.04 10.72 C 69.40 10.72 68.12 10.71 67.48 10.71 C 67.53 9.92 67.61 8.35 67.65 7.57 C 66.94 7.78 65.52 8.21 64.81 8.43 C 64.81 9.00 64.81 10.15 64.82 10.73 C 62.31 10.71 59.80 10.80 57.30 10.68 C 57.06 10.08 56.58 8.88 56.33 8.28 C 58.36 8.19 60.39 8.17 62.42 8.15 C 62.31 7.49 62.09 6.17 61.97 5.51 C 57.63 5.21 53.26 5.47 48.91 5.37 C 48.95 7.18 48.16 8.35 46.32 8.54 C 46.18 7.73 45.89 6.12 45.74 5.31 C 44.06 5.36 42.37 5.33 40.70 5.49 M 68.09 5.51 C 66.58 6.51 68.37 8.97 69.80 7.88 C 71.31 6.86 69.53 4.42 68.09 5.51 M 75.64 5.38 C 75.66 11.72 75.66 18.06 75.64 24.40 C 81.96 24.40 88.27 24.38 94.58 24.41 C 94.59 18.06 94.59 11.71 94.58 5.36 C 88.27 5.41 81.96 5.38 75.64 5.38 M 5.42 26.70 C 5.42 28.54 5.34 30.38 5.51 32.22 C 6.19 32.31 7.54 32.49 8.21 32.58 C 8.17 30.82 8.20 29.05 8.03 27.30 C 7.38 27.15 6.08 26.85 5.42 26.70 M 10.78 26.93 C 10.77 28.75 10.77 30.57 10.76 32.39 C 11.44 32.39 12.80 32.39 13.48 32.39 C 13.49 31.72 13.53 30.38 13.54 29.71 C 17.14 29.73 20.74 29.72 24.33 29.74 C 24.34 29.04 24.34 27.63 24.34 26.93 C 19.82 26.93 15.30 26.93 10.78 26.93 M 92.11 30.24 C 90.97 31.70 93.44 33.47 94.43 31.87 C 95.57 30.43 93.08 28.68 92.11 30.24 M 22.17 32.54 C 20.57 33.52 22.30 36.00 23.79 34.88 C 25.36 33.93 23.63 31.43 22.17 32.54 M 5.61 38.27 C 4.42 39.63 6.73 41.58 7.83 40.12 C 9.04 38.74 6.74 36.81 5.61 38.27 M 91.83 48.40 C 91.78 50.78 90.98 54.52 94.53 54.48 C 94.57 52.59 94.67 50.68 94.48 48.79 C 93.82 48.70 92.49 48.50 91.83 48.40 M 22.15 59.92 C 21.57 61.55 22.12 62.13 23.78 61.65 C 24.32 60.01 23.78 59.43 22.15 59.92 M 5.43 62.11 C 5.40 65.74 5.40 69.37 5.43 73.01 C 6.11 72.98 7.48 72.93 8.16 72.91 C 8.16 69.34 8.15 65.77 8.16 62.20 C 7.48 62.17 6.11 62.13 5.43 62.11 M 16.44 62.10 C 16.32 62.68 16.07 63.85 15.95 64.43 C 15.51 64.64 14.64 65.04 14.20 65.24 C 13.94 65.66 13.41 66.49 13.14 66.91 C 14.80 68.07 16.97 67.46 18.87 67.69 C 18.88 65.84 18.87 63.99 18.85 62.14 C 18.25 62.13 17.04 62.11 16.44 62.10 M 27.14 62.08 C 27.13 62.78 27.11 64.18 27.10 64.88 C 27.75 64.87 29.05 64.86 29.70 64.85 C 29.70 64.18 29.71 62.85 29.72 62.18 C 29.08 62.16 27.78 62.11 27.14 62.08 M 22.23 65.22 C 20.78 66.07 22.34 68.39 23.68 67.39 C 25.14 66.51 23.59 64.22 22.23 65.22 M 10.76 67.64 C 10.77 69.45 10.77 71.26 10.78 73.08 C 12.67 73.07 14.57 73.07 16.46 73.06 C 16.64 70.95 15.67 69.84 13.50 70.02 C 13.52 69.40 13.55 68.15 13.57 67.52 C 12.86 67.55 11.46 67.61 10.76 67.64 M 48.67 72.95 C 48.65 73.62 48.61 74.97 48.59 75.65 C 47.91 75.64 46.55 75.62 45.87 75.61 C 45.88 76.31 45.91 77.71 45.92 78.41 C 46.47 78.39 47.55 78.37 48.09 78.35 C 48.38 78.96 48.96 80.17 49.25 80.77 C 49.73 80.95 50.70 81.31 51.18 81.48 C 51.42 84.00 51.26 86.54 51.48 89.06 C 52.14 89.18 53.46 89.42 54.12 89.54 C 54.10 86.85 54.10 84.16 54.10 81.48 C 53.44 81.31 52.13 80.97 51.47 80.80 C 51.24 78.17 51.39 75.51 51.40 72.87 C 50.72 72.89 49.35 72.93 48.67 72.95 M 5.42 94.64 C 11.73 94.59 18.04 94.62 24.36 94.62 C 24.34 88.28 24.35 81.94 24.35 75.60 C 18.04 75.60 11.73 75.62 5.42 75.59 C 5.41 81.94 5.41 88.29 5.42 94.64 M 35.10 75.56 C 35.13 76.26 35.18 77.68 35.20 78.39 C 34.51 78.38 33.13 78.36 32.44 78.35 C 32.43 81.07 32.43 83.79 32.44 86.52 C 35.14 86.50 37.83 86.50 40.53 86.52 C 40.53 84.72 40.53 82.92 40.53 81.12 C 39.79 81.13 38.30 81.15 37.56 81.16 C 37.68 80.50 37.93 79.18 38.05 78.52 C 39.79 78.33 41.54 78.38 43.29 78.34 C 43.28 77.66 43.28 76.29 43.28 75.61 C 40.55 75.61 37.83 75.61 35.10 75.56 M 59.65 78.44 C 59.56 79.13 59.38 80.52 59.28 81.22 C 61.00 81.23 62.72 81.18 64.44 81.07 C 64.73 80.21 64.99 79.33 65.22 78.45 C 63.37 78.40 61.51 78.31 59.65 78.44 M 91.73 78.35 C 91.79 79.04 91.92 80.44 91.98 81.14 C 94.25 82.05 94.71 80.35 94.89 78.50 C 94.10 78.46 92.52 78.38 91.73 78.35 M 27.03 78.24 C 27.10 82.00 27.05 85.76 27.13 89.51 C 27.74 89.40 28.97 89.19 29.58 89.08 C 29.80 85.56 29.88 81.99 29.51 78.48 C 28.89 78.42 27.65 78.30 27.03 78.24 M 43.25 78.39 C 43.26 80.18 43.27 81.98 43.28 83.78 C 45.26 83.74 47.24 83.67 49.22 83.52 C 48.86 82.95 48.14 81.82 47.78 81.26 C 47.38 81.11 46.60 80.82 46.21 80.67 C 46.13 80.11 45.97 78.98 45.89 78.42 C 45.23 78.41 43.91 78.39 43.25 78.39 M 43.24 89.28 C 40.55 89.28 37.86 89.27 35.18 89.27 C 35.17 89.90 35.14 91.16 35.12 91.80 C 35.71 91.81 36.88 91.83 37.47 91.84 C 37.65 92.52 38.01 93.87 38.19 94.55 C 40.73 94.70 43.27 94.60 45.82 94.64 C 45.90 93.93 46.05 92.53 46.13 91.83 C 46.76 91.84 48.01 91.86 48.63 91.87 C 48.64 90.07 48.64 88.28 48.63 86.49 C 46.85 86.49 45.07 86.49 43.29 86.48 C 43.28 87.18 43.25 88.58 43.24 89.28 M 54.28 89.47 C 52.94 90.68 55.33 93.05 56.56 91.64 C 56.55 91.09 56.54 90.00 56.54 89.46 C 55.97 89.46 54.85 89.47 54.28 89.47 M 27.08 91.79 C 27.09 92.51 27.11 93.95 27.12 94.67 C 27.77 94.65 29.06 94.63 29.70 94.62 C 29.70 93.93 29.70 92.54 29.70 91.85 C 29.04 91.84 27.74 91.81 27.08 91.79 M 51.01 94.42 C 51.71 94.51 53.12 94.67 53.82 94.76 C 53.85 94.05 53.91 92.65 53.95 91.95 C 51.92 91.03 51.17 92.77 51.01 94.42 M 89.10 92.19 C 89.15 92.81 89.25 94.05 89.30 94.66 C 89.94 94.65 91.22 94.63 91.86 94.62 C 91.84 93.89 91.82 92.42 91.81 91.68 C 91.13 91.81 89.78 92.06 89.10 92.19 Z" />
<path fill="#fefefe" opacity="1.00" d=" M 8.15 8.16 C 12.63 8.18 17.11 8.20 21.60 8.14 C 21.61 12.63 21.60 17.13 21.60 21.63 C 17.11 21.59 12.63 21.61 8.14 21.61 C 8.17 17.13 8.16 12.64 8.15 8.16 M 10.77 10.71 C 10.77 13.42 10.77 16.13 10.77 18.84 C 13.47 18.84 16.18 18.84 18.88 18.84 C 18.89 16.13 18.88 13.42 18.89 10.71 C 16.18 10.71 13.47 10.71 10.77 10.71 Z" />
<path fill="#fefefe" opacity="1.00" d=" M 48.57 8.12 C 50.36 8.15 52.14 8.17 53.93 8.19 C 54.02 8.87 54.21 10.24 54.30 10.92 C 54.93 10.82 56.19 10.60 56.83 10.50 C 56.32 12.75 58.10 17.12 54.19 16.53 C 54.16 15.72 54.10 14.10 54.07 13.30 C 52.21 13.14 51.09 13.92 51.07 15.83 C 49.61 16.34 47.24 17.10 49.20 18.76 C 50.81 19.08 52.47 18.82 54.10 18.86 C 54.10 20.73 54.10 22.60 54.10 24.47 C 54.75 24.35 56.05 24.13 56.71 24.02 C 56.94 22.31 56.69 20.57 56.72 18.85 C 57.40 18.84 58.76 18.82 59.45 18.82 C 59.45 20.65 59.46 22.49 59.47 24.32 C 58.85 24.45 57.60 24.72 56.98 24.86 C 56.56 26.43 56.74 28.07 56.72 29.67 C 56.16 29.73 55.04 29.84 54.47 29.89 C 54.27 27.99 53.69 26.40 51.38 26.94 C 51.37 25.14 51.37 23.33 51.36 21.53 C 50.76 21.57 49.55 21.66 48.94 21.70 C 48.67 21.06 48.13 19.78 47.86 19.14 C 46.37 18.73 44.81 18.81 43.29 18.70 C 43.26 21.38 43.26 24.05 43.28 26.73 C 42.58 26.89 41.18 27.19 40.48 27.35 C 40.58 23.64 40.52 19.93 40.55 16.22 C 42.22 16.26 43.89 16.30 45.56 16.34 C 45.77 14.44 46.44 12.92 48.67 13.26 C 48.64 11.55 48.61 9.83 48.57 8.12 Z" />
<path fill="#fefefe" opacity="1.00" d=" M 78.40 8.14 C 82.88 8.20 87.37 8.18 91.85 8.16 C 91.84 12.64 91.83 17.13 91.86 21.61 C 87.37 21.61 82.88 21.59 78.40 21.63 C 78.39 17.13 78.39 12.64 78.40 8.14 M 81.11 10.71 C 81.11 13.42 81.11 16.13 81.12 18.84 C 83.82 18.84 86.52 18.84 89.23 18.83 C 89.23 16.13 89.23 13.42 89.23 10.71 C 86.52 10.71 83.82 10.71 81.11 10.71 Z" />
<path fill="#fefefe" opacity="1.00" d=" M 59.45 13.49 C 62.15 13.50 64.85 13.50 67.55 13.49 C 67.55 15.27 67.55 17.06 67.56 18.85 C 65.88 18.85 64.21 18.85 62.53 18.89 C 62.48 16.94 61.50 15.87 59.49 16.00 C 59.48 15.16 59.46 14.32 59.45 13.49 Z" />
<path fill="#fefefe" opacity="1.00" d=" M 29.70 13.49 C 30.38 13.50 31.75 13.50 32.43 13.51 C 32.44 14.21 32.46 15.61 32.47 16.31 C 34.24 16.29 36.02 16.27 37.79 16.26 C 37.80 18.96 37.80 21.67 37.80 24.38 C 37.21 24.39 36.04 24.43 35.46 24.45 C 35.53 22.42 34.73 21.16 32.57 21.45 C 32.86 19.35 31.76 18.45 29.69 18.59 C 29.70 16.89 29.70 15.19 29.70 13.49 Z" />
<path fill="#fefefe" opacity="1.00" d=" M 30.33 22.17 C 31.97 21.67 32.52 22.23 32.00 23.86 C 30.37 24.40 29.81 23.84 30.33 22.17 Z" />
<path fill="#fefefe" opacity="1.00" d=" M 46.32 22.18 C 47.29 20.79 49.44 22.59 48.34 23.83 C 47.33 25.25 45.24 23.44 46.32 22.18 Z" />
<path fill="#fefefe" opacity="1.00" d=" M 62.36 22.16 C 63.37 20.57 65.78 22.41 64.66 23.85 C 63.65 25.43 61.24 23.60 62.36 22.16 Z" />
<path fill="#fefefe" opacity="1.00" d=" M 38.35 27.21 C 39.82 26.11 41.50 28.59 40.01 29.60 C 38.53 30.71 36.85 28.21 38.35 27.21 Z" />
<path fill="#fefefe" opacity="1.00" d=" M 49.14 27.22 C 50.60 26.09 52.39 28.49 50.86 29.55 C 49.45 30.68 47.65 28.23 49.14 27.22 Z" />
<path fill="#fefefe" opacity="1.00" d=" M 59.31 26.95 C 61.04 26.95 62.78 26.94 64.51 26.94 C 64.50 28.92 65.38 30.13 67.46 30.02 C 67.53 30.64 67.68 31.89 67.76 32.51 C 65.89 32.42 64.02 32.38 62.15 32.34 C 62.17 31.75 62.20 30.58 62.22 29.99 C 60.05 30.14 59.00 29.13 59.31 26.95 Z" />
<path fill="#fefefe" opacity="1.00" d=" M 42.86 32.38 C 42.51 28.62 46.36 29.95 48.68 29.54 C 48.68 30.53 48.68 31.51 48.69 32.49 C 46.75 32.41 44.80 32.39 42.86 32.38 Z" />
<path fill="#fefefe" opacity="1.00" d=" M 81.28 29.41 C 83.26 29.37 84.04 30.76 84.42 32.52 C 83.61 32.45 81.98 32.33 81.17 32.27 C 81.12 35.00 81.11 37.73 81.08 40.47 C 81.78 40.49 83.17 40.53 83.86 40.55 C 83.79 41.47 83.72 42.38 83.65 43.30 C 81.90 43.29 80.15 43.28 78.40 43.27 C 78.40 42.58 78.40 41.19 78.41 40.49 C 77.79 40.49 76.56 40.49 75.95 40.49 C 75.81 39.85 75.53 38.57 75.39 37.92 C 73.70 37.77 72.01 37.82 70.32 37.81 C 70.29 37.16 70.24 35.85 70.22 35.20 C 71.95 35.18 73.70 35.23 75.43 35.07 C 75.54 34.40 75.78 33.05 75.90 32.38 C 77.61 32.39 79.32 32.39 81.03 32.40 C 81.10 31.65 81.22 30.16 81.28 29.41 Z" />
<path fill="#fefefe" opacity="1.00" d=" M 40.61 32.05 C 42.51 32.15 43.61 33.17 43.60 35.18 C 44.15 35.17 45.27 35.14 45.83 35.13 C 46.14 37.42 44.76 41.49 48.61 40.71 C 48.63 41.31 48.65 42.52 48.66 43.12 C 47.96 43.19 46.55 43.32 45.85 43.39 C 45.89 45.12 45.92 46.84 45.98 48.57 C 46.64 48.60 47.97 48.65 48.64 48.68 C 48.63 50.42 48.63 52.17 48.62 53.92 C 47.91 53.98 46.49 54.10 45.77 54.16 C 45.84 53.43 45.97 51.97 46.04 51.23 C 44.30 51.05 43.09 51.75 42.68 53.49 C 43.52 53.70 45.18 54.11 46.01 54.32 C 45.96 54.93 45.85 56.16 45.80 56.77 C 45.17 56.76 43.90 56.74 43.27 56.73 C 43.28 56.04 43.30 54.68 43.31 53.99 C 40.72 53.93 38.12 53.91 35.53 54.00 C 35.44 52.09 34.38 51.05 32.47 50.96 C 32.45 49.30 32.45 47.63 32.45 45.97 C 33.06 46.01 34.29 46.09 34.90 46.13 C 35.50 47.83 35.06 49.68 35.12 51.44 C 36.92 51.41 38.73 51.40 40.53 51.40 C 40.54 49.61 40.54 47.82 40.54 46.03 C 38.85 45.81 36.92 46.45 35.42 45.50 C 35.34 44.95 35.20 43.85 35.13 43.30 C 33.28 43.28 31.44 43.26 29.60 43.22 C 29.66 45.01 29.71 46.80 29.74 48.59 C 29.03 48.61 27.62 48.63 26.91 48.65 C 26.93 49.30 26.96 50.62 26.97 51.28 C 26.30 51.36 24.94 51.53 24.26 51.62 C 24.30 50.96 24.36 49.65 24.39 48.99 C 22.84 48.49 19.98 48.12 22.27 46.24 C 23.72 45.62 25.31 46.03 26.84 46.02 C 26.91 45.39 27.07 44.15 27.14 43.52 C 29.05 43.54 29.99 42.42 30.17 40.58 C 29.28 40.53 27.50 40.43 26.61 40.38 C 26.77 39.83 27.09 38.74 27.25 38.20 C 29.22 36.93 30.00 38.59 30.05 40.49 C 31.76 40.50 33.46 40.50 35.17 40.50 C 35.18 39.83 35.20 38.50 35.21 37.83 C 35.85 37.83 37.13 37.83 37.77 37.83 C 37.77 38.47 37.78 39.74 37.79 40.38 C 38.49 40.47 39.89 40.64 40.59 40.72 C 40.51 37.83 40.51 34.94 40.61 32.05 M 40.98 40.97 C 40.46 42.60 41.03 43.17 42.68 42.69 C 43.16 41.01 42.59 40.44 40.98 40.97 Z" />
<path fill="#fefefe" opacity="1.00" d=" M 50.06 32.39 C 51.73 32.37 51.66 35.16 49.96 34.99 C 48.25 35.04 48.39 32.25 50.06 32.39 Z" />
<path fill="#fefefe" opacity="1.00" d=" M 53.49 32.50 C 55.42 32.42 57.36 32.30 59.28 32.46 C 59.37 33.14 59.56 34.50 59.65 35.19 C 57.25 35.23 53.55 36.01 53.49 32.50 Z" />
<path fill="#fefefe" opacity="1.00" d=" M 85.21 32.40 C 86.89 32.39 86.80 35.18 85.09 35.00 C 83.37 35.04 83.57 32.26 85.21 32.40 Z" />
<path fill="#fefefe" opacity="1.00" d=" M 35.38 32.96 C 36.38 31.34 38.79 33.10 37.66 34.58 C 36.68 36.16 34.18 34.42 35.38 32.96 Z" />
<path fill="#fefefe" opacity="1.00" d=" M 68.03 32.87 C 69.61 32.34 70.18 32.92 69.74 34.60 C 68.10 35.12 67.53 34.54 68.03 32.87 Z" />
<path fill="#fefefe" opacity="1.00" d=" M 51.71 37.60 C 50.29 36.52 52.07 33.97 53.35 35.61 C 55.19 36.61 53.08 38.91 51.71 37.60 Z" />
<path fill="#fefefe" opacity="1.00" d=" M 54.37 37.32 C 56.02 37.68 56.95 38.73 57.09 40.38 C 56.32 40.42 54.78 40.50 54.01 40.54 C 53.94 41.33 53.81 42.91 53.74 43.70 C 51.95 43.47 51.15 42.30 51.04 40.61 C 51.77 40.57 53.24 40.49 53.97 40.45 C 54.07 39.67 54.27 38.11 54.37 37.32 Z" />
<path fill="#fefefe" opacity="1.00" d=" M 59.46 42.85 C 59.47 41.17 59.48 39.50 59.49 37.83 C 61.24 37.83 62.99 37.83 64.74 37.83 C 64.79 38.50 64.91 39.84 64.97 40.50 C 65.61 40.49 66.90 40.48 67.54 40.47 C 67.54 41.16 67.55 42.55 67.56 43.24 C 68.26 43.25 69.67 43.28 70.37 43.30 C 70.33 43.93 70.24 45.18 70.20 45.81 C 70.92 45.92 72.36 46.13 73.07 46.24 C 73.02 46.84 72.91 48.03 72.85 48.62 C 71.09 48.61 69.32 48.61 67.56 48.62 C 67.56 46.81 67.55 45.00 67.54 43.20 C 66.87 43.23 65.52 43.28 64.85 43.31 C 64.82 42.52 64.76 40.95 64.73 40.17 C 62.66 40.12 61.80 41.30 61.95 43.32 C 61.32 43.27 60.06 43.18 59.42 43.14 C 59.42 43.96 59.41 45.60 59.41 46.43 C 58.86 46.26 57.75 45.92 57.20 45.75 C 55.47 44.02 57.90 42.97 59.46 42.85 Z" />
<path fill="#fefefe" opacity="1.00" d=" M 22.16 40.67 C 23.61 39.54 25.33 42.02 23.81 43.02 C 22.36 44.16 20.59 41.66 22.16 40.67 Z" />
<path fill="#fefefe" opacity="1.00" d=" M 70.34 43.24 C 70.31 42.33 70.29 41.42 70.27 40.51 C 72.08 40.50 73.89 40.48 75.71 40.45 C 75.67 41.40 75.64 42.35 75.61 43.30 C 73.85 43.28 72.09 43.26 70.34 43.24 Z" />
<path fill="#fefefe" opacity="1.00" d=" M 10.82 43.23 C 13.09 43.53 17.01 42.11 16.51 45.87 C 14.58 45.92 12.66 45.94 10.73 45.95 C 10.75 45.27 10.79 43.91 10.82 43.23 Z" />
<path fill="#fefefe" opacity="1.00" d=" M 48.59 43.27 C 49.28 43.25 50.65 43.21 51.33 43.19 C 50.22 46.74 53.63 45.81 55.85 46.15 C 57.36 47.43 56.51 49.62 56.81 51.33 C 56.13 51.37 54.76 51.43 54.07 51.47 C 54.09 50.75 54.12 49.32 54.14 48.61 C 52.30 48.61 50.46 48.61 48.63 48.62 C 48.63 46.84 48.62 45.05 48.59 43.27 Z" />
<path fill="#fefefe" opacity="1.00" d=" M 16.38 49.21 C 17.32 47.57 19.80 49.30 18.74 50.79 C 17.81 52.42 15.32 50.68 16.38 49.21 Z" />
<path fill="#fefefe" opacity="1.00" d=" M 59.47 51.38 C 59.47 50.45 59.47 49.53 59.47 48.60 C 61.25 48.60 63.03 48.61 64.81 48.62 C 64.83 49.32 64.87 50.73 64.89 51.44 C 63.08 51.40 61.28 51.39 59.47 51.38 Z" />
<path fill="#fefefe" opacity="1.00" d=" M 75.91 48.60 C 76.53 48.60 77.77 48.60 78.39 48.60 C 78.39 49.31 78.38 50.73 78.38 51.44 C 77.69 51.41 76.31 51.34 75.62 51.31 C 75.63 53.15 75.63 54.99 75.58 56.83 C 76.28 56.79 77.68 56.71 78.38 56.67 C 78.38 57.38 78.39 58.81 78.39 59.53 C 79.07 59.52 80.42 59.52 81.10 59.51 C 81.11 60.18 81.13 61.50 81.15 62.17 C 81.80 62.17 83.10 62.17 83.76 62.17 C 83.76 62.83 83.76 64.17 83.76 64.83 C 83.10 64.83 81.79 64.83 81.13 64.83 C 81.12 66.73 81.11 68.62 81.09 70.52 C 79.07 70.65 78.04 69.62 78.07 67.59 C 77.48 67.59 76.30 67.59 75.71 67.59 C 75.68 68.27 75.61 69.62 75.58 70.29 C 73.84 70.28 72.10 70.28 70.36 70.29 C 70.33 69.61 70.27 68.27 70.24 67.60 C 65.75 67.61 61.25 67.61 56.76 67.60 C 56.75 66.91 56.73 65.52 56.73 64.83 C 61.24 64.84 65.75 64.83 70.27 64.85 C 70.29 64.17 70.34 62.81 70.36 62.13 C 69.67 62.15 68.30 62.17 67.62 62.19 C 67.59 61.67 67.52 60.64 67.49 60.12 C 65.45 59.24 64.49 57.07 62.46 56.20 C 62.38 56.90 62.22 58.30 62.13 59.00 C 63.48 59.53 64.81 60.21 65.70 61.40 C 62.02 62.32 57.94 62.67 54.27 61.75 C 54.11 61.32 53.78 60.45 53.62 60.02 C 53.10 59.81 52.06 59.38 51.54 59.17 C 51.47 59.90 51.33 61.35 51.26 62.07 C 54.79 61.58 54.16 65.45 54.17 67.66 C 54.89 67.66 56.32 67.67 57.04 67.67 C 57.57 71.47 53.63 70.02 51.34 70.38 C 51.35 69.68 51.38 68.29 51.39 67.60 C 50.67 67.60 49.25 67.60 48.54 67.61 C 48.58 66.94 48.67 65.61 48.72 64.95 C 44.73 65.73 44.53 58.07 48.63 59.30 C 48.64 58.65 48.65 57.34 48.66 56.69 C 49.33 56.71 50.69 56.75 51.36 56.78 C 51.37 55.01 51.37 53.24 51.36 51.48 C 51.94 51.40 53.10 51.26 53.68 51.18 C 53.81 51.87 54.08 53.25 54.21 53.94 C 57.62 54.06 61.04 54.07 64.45 54.08 C 64.55 52.23 65.57 51.16 67.37 50.98 C 67.43 51.75 67.56 53.29 67.63 54.06 C 68.29 54.06 69.61 54.06 70.28 54.06 C 70.28 53.40 70.29 52.09 70.30 51.43 C 72.00 51.40 73.71 51.44 75.42 51.27 C 75.54 50.60 75.78 49.27 75.91 48.60 M 54.22 56.70 C 54.09 57.41 53.81 58.83 53.67 59.54 C 55.61 59.50 57.55 59.51 59.49 59.51 C 59.48 58.58 59.47 57.65 59.46 56.71 C 57.71 56.71 55.97 56.71 54.22 56.70 M 73.28 56.37 C 73.18 57.10 72.97 58.54 72.86 59.26 C 70.82 59.08 69.96 60.14 70.11 62.06 C 71.99 62.13 73.88 62.21 75.76 62.32 C 75.37 60.08 76.83 56.28 73.28 56.37 M 49.16 62.31 C 47.64 63.30 49.35 65.77 50.82 64.70 C 52.35 63.71 50.63 61.23 49.16 62.31 M 76.20 62.38 C 74.68 63.43 76.47 65.85 77.90 64.64 C 79.41 63.59 77.62 61.15 76.20 62.38 Z" />
<path fill="#fefefe" opacity="1.00" d=" M 22.17 51.65 C 23.43 50.56 25.18 52.75 23.79 53.70 C 22.51 54.77 20.76 52.64 22.17 51.65 Z" />
<path fill="#fefefe" opacity="1.00" d=" M 14.16 54.26 C 15.58 53.27 16.94 55.66 15.54 56.52 C 14.16 57.47 12.74 55.08 14.16 54.26 Z" />
<path fill="#fefefe" opacity="1.00" d=" M 24.48 54.35 C 25.82 52.81 28.21 55.07 26.75 56.50 C 26.22 56.50 25.17 56.50 24.65 56.50 C 24.61 55.96 24.52 54.89 24.48 54.35 Z" />
<path fill="#fefefe" opacity="1.00" d=" M 84.36 54.22 C 85.85 53.05 87.50 55.56 85.97 56.56 C 84.49 57.73 82.84 55.21 84.36 54.22 Z" />
<path fill="#fefefe" opacity="1.00" d=" M 40.55 56.70 C 41.23 56.71 42.58 56.73 43.26 56.75 C 43.26 58.57 43.26 60.39 43.26 62.22 C 42.59 62.18 41.25 62.10 40.58 62.06 C 40.56 62.77 40.50 64.19 40.47 64.90 C 39.81 64.88 38.48 64.83 37.82 64.80 C 37.81 64.14 37.81 62.82 37.81 62.16 C 37.17 62.16 35.88 62.16 35.24 62.16 C 35.21 61.50 35.14 60.17 35.10 59.51 C 36.91 59.50 38.72 59.51 40.52 59.52 C 40.53 58.82 40.54 57.40 40.55 56.70 Z" />
<path fill="#fefefe" opacity="1.00" d=" M 43.36 64.43 C 43.96 64.64 45.17 65.05 45.77 65.26 C 47.28 67.03 44.76 67.72 43.39 67.99 C 43.38 67.10 43.37 65.32 43.36 64.43 Z" />
<path fill="#fefefe" opacity="1.00" d=" M 35.32 68.11 C 36.30 66.55 38.79 68.28 37.65 69.74 C 36.65 71.27 34.17 69.58 35.32 68.11 Z" />
<path fill="#fefefe" opacity="1.00" d=" M 62.22 70.25 C 62.86 70.25 64.14 70.25 64.78 70.25 C 64.80 70.91 64.83 72.24 64.85 72.91 C 64.20 72.93 62.88 72.97 62.23 72.99 C 62.23 72.31 62.22 70.94 62.22 70.25 Z" />
<path fill="#fefefe" opacity="1.00" d=" M 87.05 70.52 C 88.37 69.42 89.92 71.67 88.68 72.67 C 87.39 73.77 85.77 71.49 87.05 70.52 Z" />
<path fill="#fefefe" opacity="1.00" d=" M 72.92 73.08 C 75.65 73.06 78.39 73.06 81.13 73.08 C 81.13 75.77 81.12 78.47 81.11 81.16 C 78.43 81.17 75.75 81.17 73.07 81.17 C 72.95 78.47 72.92 75.78 72.92 73.08 M 76.27 76.14 C 75.71 77.79 76.25 78.37 77.88 77.86 C 78.44 76.22 77.90 75.65 76.27 76.14 Z" />
<path fill="#fefefe" opacity="1.00" d=" M 83.73 73.36 C 84.45 73.14 85.89 72.71 86.60 72.49 C 86.51 74.47 86.48 76.45 86.44 78.43 C 85.77 78.42 84.43 78.38 83.76 78.37 C 83.75 76.70 83.75 75.03 83.73 73.36 Z" />
<path fill="#fefefe" opacity="1.00" d=" M 8.14 78.39 C 12.63 78.39 17.11 78.41 21.60 78.37 C 21.60 82.87 21.61 87.37 21.60 91.86 C 17.11 91.80 12.63 91.82 8.15 91.84 C 8.16 87.36 8.17 82.87 8.14 78.39 M 10.77 81.16 C 10.77 83.87 10.77 86.58 10.77 89.29 C 13.47 89.29 16.18 89.29 18.89 89.29 C 18.88 86.58 18.89 83.87 18.88 81.16 C 16.18 81.16 13.47 81.16 10.77 81.16 Z" />
<path fill="#fefefe" opacity="1.00" d=" M 35.20 81.13 C 35.86 81.15 37.17 81.20 37.83 81.23 C 37.81 81.86 37.76 83.14 37.73 83.78 C 37.09 83.76 35.81 83.72 35.17 83.71 C 35.17 83.06 35.19 81.77 35.20 81.13 Z" />
<path fill="#fefefe" opacity="1.00" d=" M 75.67 83.71 C 77.49 83.72 79.32 83.73 81.14 83.73 C 81.13 84.42 81.10 85.81 81.09 86.50 C 79.27 86.50 77.45 86.50 75.64 86.50 C 75.64 85.81 75.66 84.41 75.67 83.71 Z" />
</g>
<g id="#030303ff">
<path fill="#030303" opacity="1.00" d=" M 5.42 5.36 C 11.73 5.41 18.04 5.38 24.35 5.38 C 24.34 11.72 24.34 18.06 24.36 24.40 C 18.04 24.40 11.73 24.38 5.42 24.41 C 5.41 18.06 5.41 11.71 5.42 5.36 M 8.15 8.16 C 8.16 12.64 8.17 17.13 8.14 21.61 C 12.63 21.61 17.11 21.59 21.60 21.63 C 21.60 17.13 21.61 12.63 21.60 8.14 C 17.11 8.20 12.63 8.18 8.15 8.16 Z" />
<path fill="#030303" opacity="1.00" d=" M 40.70 5.49 C 42.37 5.33 44.06 5.36 45.74 5.31 C 45.89 6.12 46.18 7.73 46.32 8.54 C 48.16 8.35 48.95 7.18 48.91 5.37 C 53.26 5.47 57.63 5.21 61.97 5.51 C 62.09 6.17 62.31 7.49 62.42 8.15 C 60.39 8.17 58.36 8.19 56.33 8.28 C 56.58 8.88 57.06 10.08 57.30 10.68 C 59.80 10.80 62.31 10.71 64.82 10.73 C 64.81 10.15 64.81 9.00 64.81 8.43 C 65.52 8.21 66.94 7.78 67.65 7.57 C 67.61 8.35 67.53 9.92 67.48 10.71 C 68.12 10.71 69.40 10.72 70.04 10.72 C 69.92 12.75 70.78 13.91 72.90 13.74 C 72.96 14.37 73.07 15.62 73.13 16.25 C 72.42 16.26 71.01 16.27 70.30 16.27 C 70.30 16.91 70.30 18.19 70.30 18.83 C 69.61 18.85 68.24 18.88 67.56 18.89 C 67.56 21.61 67.56 24.34 67.58 27.06 C 68.26 27.06 69.61 27.05 70.29 27.05 C 70.29 25.24 70.29 23.43 70.28 21.62 C 70.94 21.61 72.26 21.59 72.92 21.59 C 72.92 24.19 72.92 26.79 72.98 29.39 C 70.99 29.38 69.99 30.62 69.55 32.44 C 71.59 32.40 73.62 32.39 75.66 32.42 C 75.65 30.59 75.65 28.76 75.66 26.93 C 80.18 26.93 84.70 26.93 89.21 26.93 C 89.22 28.75 89.22 30.58 89.22 32.40 C 89.89 32.39 91.23 32.35 91.90 32.33 C 91.87 34.09 91.83 35.85 91.77 37.61 C 92.44 37.72 93.80 37.94 94.47 38.05 C 94.66 39.71 94.66 41.39 94.51 43.06 C 93.85 43.17 92.53 43.41 91.87 43.52 C 91.85 44.18 91.80 45.49 91.77 46.15 C 91.13 46.07 89.85 45.91 89.22 45.83 C 89.21 44.06 89.20 42.29 89.19 40.52 C 89.85 40.52 91.15 40.51 91.81 40.51 C 91.84 39.90 91.89 38.68 91.92 38.07 C 90.12 37.92 88.32 37.82 86.51 37.74 C 86.49 40.51 86.50 43.28 86.50 46.06 C 87.26 46.01 88.79 45.92 89.55 45.87 C 89.58 47.82 88.53 48.86 86.66 49.01 C 86.60 48.26 86.48 46.75 86.42 45.99 C 84.63 46.04 82.85 46.08 81.07 46.13 C 81.07 46.66 81.09 47.72 81.09 48.26 C 82.31 48.80 85.03 48.79 83.75 50.76 C 83.02 51.05 81.55 51.63 80.81 51.92 C 80.97 53.34 82.00 54.09 83.21 54.65 C 83.45 53.96 83.94 52.57 84.18 51.87 C 86.06 51.34 89.69 50.28 89.47 53.46 C 90.92 53.96 91.98 55.14 92.56 56.53 C 93.04 56.65 93.99 56.89 94.47 57.01 C 94.72 59.57 94.57 62.15 94.60 64.72 C 94.03 64.83 92.89 65.03 92.32 65.13 C 92.17 64.43 91.87 63.04 91.72 62.34 C 90.87 62.06 89.16 61.50 88.31 61.23 C 89.30 60.20 90.58 59.53 91.91 59.03 C 91.82 58.28 91.63 56.79 91.54 56.04 C 89.72 57.27 88.46 59.13 86.53 60.21 C 86.49 62.68 86.49 65.16 86.50 67.64 C 87.21 67.64 88.63 67.64 89.35 67.64 C 89.31 66.95 89.24 65.58 89.20 64.89 C 89.88 64.84 91.24 64.73 91.92 64.68 C 91.81 65.35 91.60 66.69 91.49 67.36 C 89.61 67.42 88.96 68.64 88.83 70.41 C 89.56 70.34 91.00 70.22 91.73 70.16 C 91.83 69.60 92.04 68.48 92.14 67.93 C 92.70 67.86 93.82 67.73 94.38 67.66 C 94.84 70.41 94.54 73.23 94.46 76.01 C 92.71 75.83 91.49 75.04 91.57 73.11 C 90.99 72.99 89.83 72.76 89.24 72.64 C 89.23 75.49 89.22 78.34 89.22 81.20 C 88.55 81.18 87.20 81.14 86.52 81.12 C 86.51 81.78 86.49 83.12 86.48 83.79 C 85.80 83.77 84.44 83.72 83.76 83.70 C 83.76 84.41 83.76 85.82 83.76 86.52 C 83.09 86.52 81.76 86.51 81.09 86.51 C 81.10 87.21 81.11 88.62 81.12 89.33 C 82.91 89.29 84.69 89.28 86.48 89.27 C 86.48 87.43 86.48 85.59 86.49 83.74 C 89.18 83.72 91.87 83.71 94.56 83.70 C 94.58 84.63 94.59 85.57 94.61 86.51 C 92.80 86.51 90.98 86.50 89.17 86.51 C 89.21 88.29 89.25 90.07 89.32 91.85 C 86.63 91.83 83.95 91.83 81.26 91.86 C 81.17 91.21 80.98 89.91 80.89 89.26 C 79.16 89.28 77.44 89.28 75.72 89.28 C 75.67 89.92 75.57 91.21 75.52 91.85 C 77.42 91.83 79.33 91.81 81.24 91.80 C 81.17 92.51 81.03 93.94 80.96 94.65 C 79.01 94.23 75.19 95.88 75.46 92.61 C 74.13 91.93 72.99 90.89 72.38 89.50 C 70.58 89.56 69.89 88.53 70.14 86.80 C 70.84 86.67 72.24 86.40 72.95 86.26 C 72.94 85.63 72.94 84.36 72.93 83.72 C 72.28 83.73 70.97 83.75 70.31 83.76 C 70.30 83.12 70.29 81.83 70.28 81.19 C 69.59 81.17 68.23 81.12 67.54 81.09 C 67.55 82.79 67.56 84.50 67.58 86.20 C 65.49 86.11 64.46 87.19 64.55 89.26 C 65.29 89.25 66.77 89.23 67.51 89.22 C 67.53 89.87 67.57 91.18 67.59 91.83 C 69.95 91.69 73.50 91.08 73.48 94.51 C 70.73 94.61 67.97 94.72 65.22 94.57 C 65.03 93.87 64.66 92.49 64.48 91.80 C 63.99 91.81 63.00 91.83 62.51 91.84 C 62.61 93.87 61.49 94.88 59.57 94.99 C 59.44 92.25 59.44 89.51 59.48 86.77 C 57.37 86.90 56.32 85.86 56.46 83.75 C 59.27 83.71 62.08 83.72 64.89 83.70 C 64.84 83.08 64.74 81.83 64.69 81.21 C 65.41 81.18 66.84 81.10 67.55 81.07 C 67.56 78.36 67.55 75.66 67.53 72.95 C 66.84 72.95 65.47 72.94 64.79 72.94 C 64.80 73.61 64.84 74.95 64.85 75.62 C 61.30 75.61 57.74 75.60 54.19 75.64 C 54.13 75.07 54.03 73.91 53.97 73.33 C 51.86 73.43 51.07 72.15 51.08 70.24 C 50.47 70.26 49.26 70.30 48.65 70.32 C 48.63 69.66 48.61 68.33 48.59 67.67 C 47.91 67.64 46.54 67.59 45.85 67.56 C 45.89 69.40 45.89 71.24 45.87 73.08 C 45.30 73.07 44.15 73.06 43.58 73.05 C 43.42 72.38 43.09 71.04 42.93 70.37 C 41.22 70.24 39.51 70.26 37.81 70.22 C 38.51 72.39 37.25 73.14 35.38 73.29 C 35.24 73.84 34.97 74.95 34.83 75.51 C 32.26 75.74 29.67 75.59 27.09 75.62 C 27.07 74.94 27.02 73.58 27.00 72.90 C 25.14 72.99 23.29 73.07 21.43 73.12 C 21.12 70.92 22.18 69.87 24.38 69.96 C 24.35 69.32 24.28 68.03 24.25 67.38 C 24.96 67.47 26.37 67.64 27.07 67.73 C 27.08 69.54 27.10 71.35 27.13 73.17 C 27.77 73.10 29.06 72.98 29.70 72.91 C 29.70 71.14 29.69 69.38 29.69 67.61 C 30.38 67.61 31.76 67.61 32.45 67.62 C 32.46 62.17 32.35 56.73 32.52 51.28 C 31.58 51.34 30.64 51.39 29.70 51.45 C 29.71 54.13 29.71 56.81 29.71 59.49 C 27.88 59.50 26.05 59.53 24.22 59.58 C 24.27 58.78 24.38 57.19 24.44 56.40 C 22.11 56.26 21.12 57.47 21.46 59.73 C 20.81 59.64 19.50 59.46 18.85 59.37 C 18.86 58.73 18.87 57.46 18.88 56.82 C 18.27 56.75 17.05 56.59 16.43 56.52 C 16.68 58.68 15.82 59.93 13.57 59.73 C 13.39 61.43 13.98 63.36 12.83 64.81 C 12.45 64.92 11.71 65.15 11.34 65.27 C 10.31 62.54 10.91 59.55 10.77 56.70 C 9.00 56.72 7.22 56.74 5.45 56.77 C 5.44 56.07 5.43 54.66 5.42 53.96 C 6.10 53.94 7.47 53.92 8.15 53.91 C 8.14 52.14 8.14 50.37 8.13 48.61 C 8.78 48.61 10.07 48.62 10.72 48.63 C 10.76 48.01 10.85 46.78 10.89 46.16 C 9.05 46.07 7.20 45.99 5.36 45.89 C 5.38 45.23 5.43 43.89 5.46 43.22 C 6.14 43.24 7.50 43.27 8.18 43.28 C 8.15 42.57 8.10 41.16 8.07 40.45 C 8.75 40.47 10.12 40.50 10.80 40.52 C 10.79 39.85 10.75 38.52 10.73 37.85 C 10.07 37.84 8.73 37.82 8.07 37.81 C 8.10 37.14 8.16 35.80 8.19 35.13 C 9.95 35.15 11.70 35.17 13.46 35.19 C 13.48 34.48 13.51 33.06 13.53 32.36 C 14.43 32.37 15.34 32.39 16.25 32.41 C 16.25 36.08 16.27 39.75 16.22 43.42 C 16.84 43.35 18.07 43.23 18.69 43.17 C 18.84 43.97 19.15 45.56 19.30 46.36 C 19.66 46.21 20.39 45.91 20.75 45.77 C 21.24 44.96 21.69 44.13 22.10 43.27 C 21.29 43.28 19.68 43.30 18.87 43.31 C 18.87 40.61 18.86 37.91 18.86 35.20 C 19.56 35.18 20.95 35.12 21.64 35.09 C 21.64 35.82 21.63 37.26 21.63 37.98 C 23.24 37.83 24.90 37.93 26.46 37.40 C 26.73 36.82 27.27 35.67 27.54 35.09 C 28.02 35.11 28.98 35.15 29.46 35.17 C 29.58 34.49 29.81 33.14 29.92 32.46 C 31.77 32.30 33.62 32.41 35.47 32.46 C 35.35 31.77 35.11 30.39 34.99 29.71 C 34.36 29.73 33.12 29.78 32.49 29.80 C 32.47 29.08 32.41 27.63 32.38 26.90 C 30.62 26.97 28.86 27.04 27.10 27.10 C 27.00 21.64 27.19 16.19 26.96 10.74 C 27.64 10.74 29.00 10.74 29.68 10.74 C 29.69 10.09 29.71 8.80 29.72 8.15 C 30.40 8.14 31.76 8.14 32.43 8.13 C 32.44 9.93 32.46 11.73 32.47 13.52 C 33.14 13.51 34.47 13.49 35.14 13.48 C 35.18 12.71 35.25 11.19 35.28 10.42 C 37.30 10.36 38.16 11.53 38.08 13.49 C 39.81 13.50 41.54 13.50 43.27 13.50 C 43.27 11.72 43.26 9.94 43.26 8.16 C 42.53 8.16 41.07 8.17 40.35 8.17 C 40.43 7.50 40.61 6.16 40.70 5.49 M 48.57 8.12 C 48.61 9.83 48.64 11.55 48.67 13.26 C 46.44 12.92 45.77 14.44 45.56 16.34 C 43.89 16.30 42.22 16.26 40.55 16.22 C 40.52 19.93 40.58 23.64 40.48 27.35 C 41.18 27.19 42.58 26.89 43.28 26.73 C 43.26 24.05 43.26 21.38 43.29 18.70 C 44.81 18.81 46.37 18.73 47.86 19.14 C 48.13 19.78 48.67 21.06 48.94 21.70 C 49.55 21.66 50.76 21.57 51.36 21.53 C 51.37 23.33 51.37 25.14 51.38 26.94 C 53.69 26.40 54.27 27.99 54.47 29.89 C 55.04 29.84 56.16 29.73 56.72 29.67 C 56.74 28.07 56.56 26.43 56.98 24.86 C 57.60 24.72 58.85 24.45 59.47 24.32 C 59.46 22.49 59.45 20.65 59.45 18.82 C 58.76 18.82 57.40 18.84 56.72 18.85 C 56.69 20.57 56.94 22.31 56.71 24.02 C 56.05 24.13 54.75 24.35 54.10 24.47 C 54.10 22.60 54.10 20.73 54.10 18.86 C 52.47 18.82 50.81 19.08 49.20 18.76 C 47.24 17.10 49.61 16.34 51.07 15.83 C 51.09 13.92 52.21 13.14 54.07 13.30 C 54.10 14.10 54.16 15.72 54.19 16.53 C 58.10 17.12 56.32 12.75 56.83 10.50 C 56.19 10.60 54.93 10.82 54.30 10.92 C 54.21 10.24 54.02 8.87 53.93 8.19 C 52.14 8.17 50.36 8.15 48.57 8.12 M 59.45 13.49 C 59.46 14.32 59.48 15.16 59.49 16.00 C 61.50 15.87 62.48 16.94 62.53 18.89 C 64.21 18.85 65.88 18.85 67.56 18.85 C 67.55 17.06 67.55 15.27 67.55 13.49 C 64.85 13.50 62.15 13.50 59.45 13.49 M 29.70 13.49 C 29.70 15.19 29.70 16.89 29.69 18.59 C 31.76 18.45 32.86 19.35 32.57 21.45 C 34.73 21.16 35.53 22.42 35.46 24.45 C 36.04 24.43 37.21 24.39 37.80 24.38 C 37.80 21.67 37.80 18.96 37.79 16.26 C 36.02 16.27 34.24 16.29 32.47 16.31 C 32.46 15.61 32.44 14.21 32.43 13.51 C 31.75 13.50 30.38 13.50 29.70 13.49 M 30.33 22.17 C 29.81 23.84 30.37 24.40 32.00 23.86 C 32.52 22.23 31.97 21.67 30.33 22.17 M 46.32 22.18 C 45.24 23.44 47.33 25.25 48.34 23.83 C 49.44 22.59 47.29 20.79 46.32 22.18 M 62.36 22.16 C 61.24 23.60 63.65 25.43 64.66 23.85 C 65.78 22.41 63.37 20.57 62.36 22.16 M 38.35 27.21 C 36.85 28.21 38.53 30.71 40.01 29.60 C 41.50 28.59 39.82 26.11 38.35 27.21 M 49.14 27.22 C 47.65 28.23 49.45 30.68 50.86 29.55 C 52.39 28.49 50.60 26.09 49.14 27.22 M 59.31 26.95 C 59.00 29.13 60.05 30.14 62.22 29.99 C 62.20 30.58 62.17 31.75 62.15 32.34 C 64.02 32.38 65.89 32.42 67.76 32.51 C 67.68 31.89 67.53 30.64 67.46 30.02 C 65.38 30.13 64.50 28.92 64.51 26.94 C 62.78 26.94 61.04 26.95 59.31 26.95 M 42.86 32.38 C 44.80 32.39 46.75 32.41 48.69 32.49 C 48.68 31.51 48.68 30.53 48.68 29.54 C 46.36 29.95 42.51 28.62 42.86 32.38 M 81.28 29.41 C 81.22 30.16 81.10 31.65 81.03 32.40 C 79.32 32.39 77.61 32.39 75.90 32.38 C 75.78 33.05 75.54 34.40 75.43 35.07 C 73.70 35.23 71.95 35.18 70.22 35.20 C 70.24 35.85 70.29 37.16 70.32 37.81 C 72.01 37.82 73.70 37.77 75.39 37.92 C 75.53 38.57 75.81 39.85 75.95 40.49 C 76.56 40.49 77.79 40.49 78.41 40.49 C 78.40 41.19 78.40 42.58 78.40 43.27 C 80.15 43.28 81.90 43.29 83.65 43.30 C 83.72 42.38 83.79 41.47 83.86 40.55 C 83.17 40.53 81.78 40.49 81.08 40.47 C 81.11 37.73 81.12 35.00 81.17 32.27 C 81.98 32.33 83.61 32.45 84.42 32.52 C 84.04 30.76 83.26 29.37 81.28 29.41 M 40.61 32.05 C 40.51 34.94 40.51 37.83 40.59 40.72 C 39.89 40.64 38.49 40.47 37.79 40.38 C 37.78 39.74 37.77 38.47 37.77 37.83 C 37.13 37.83 35.85 37.83 35.21 37.83 C 35.20 38.50 35.18 39.83 35.17 40.50 C 33.46 40.50 31.76 40.50 30.05 40.49 C 30.00 38.59 29.22 36.93 27.25 38.20 C 27.09 38.74 26.77 39.83 26.61 40.38 C 27.50 40.43 29.28 40.53 30.17 40.58 C 29.99 42.42 29.05 43.54 27.14 43.52 C 27.07 44.15 26.91 45.39 26.84 46.02 C 25.31 46.03 23.72 45.62 22.27 46.24 C 19.98 48.12 22.84 48.49 24.39 48.99 C 24.36 49.65 24.30 50.96 24.26 51.62 C 24.94 51.53 26.30 51.36 26.97 51.28 C 26.96 50.62 26.93 49.30 26.91 48.65 C 27.62 48.63 29.03 48.61 29.74 48.59 C 29.71 46.80 29.66 45.01 29.60 43.22 C 31.44 43.26 33.28 43.28 35.13 43.30 C 35.20 43.85 35.34 44.95 35.42 45.50 C 36.92 46.45 38.85 45.81 40.54 46.03 C 40.54 47.82 40.54 49.61 40.53 51.40 C 38.73 51.40 36.92 51.41 35.12 51.44 C 35.06 49.68 35.50 47.83 34.90 46.13 C 34.29 46.09 33.06 46.01 32.45 45.97 C 32.45 47.63 32.45 49.30 32.47 50.96 C 34.38 51.05 35.44 52.09 35.53 54.00 C 38.12 53.91 40.72 53.93 43.31 53.99 C 43.30 54.68 43.28 56.04 43.27 56.73 C 43.90 56.74 45.17 56.76 45.80 56.77 C 45.85 56.16 45.96 54.93 46.01 54.32 C 45.18 54.11 43.52 53.70 42.68 53.49 C 43.09 51.75 44.30 51.05 46.04 51.23 C 45.97 51.97 45.84 53.43 45.77 54.16 C 46.49 54.10 47.91 53.98 48.62 53.92 C 48.63 52.17 48.63 50.42 48.64 48.68 C 47.97 48.65 46.64 48.60 45.98 48.57 C 45.92 46.84 45.89 45.12 45.85 43.39 C 46.55 43.32 47.96 43.19 48.66 43.12 C 48.65 42.52 48.63 41.31 48.61 40.71 C 44.76 41.49 46.14 37.42 45.83 35.13 C 45.27 35.14 44.15 35.17 43.60 35.18 C 43.61 33.17 42.51 32.15 40.61 32.05 M 50.06 32.39 C 48.39 32.25 48.25 35.04 49.96 34.99 C 51.66 35.16 51.73 32.37 50.06 32.39 M 53.49 32.50 C 53.55 36.01 57.25 35.23 59.65 35.19 C 59.56 34.50 59.37 33.14 59.28 32.46 C 57.36 32.30 55.42 32.42 53.49 32.50 M 85.21 32.40 C 83.57 32.26 83.37 35.04 85.09 35.00 C 86.80 35.18 86.89 32.39 85.21 32.40 M 35.38 32.96 C 34.18 34.42 36.68 36.16 37.66 34.58 C 38.79 33.10 36.38 31.34 35.38 32.96 M 68.03 32.87 C 67.53 34.54 68.10 35.12 69.74 34.60 C 70.18 32.92 69.61 32.34 68.03 32.87 M 51.71 37.60 C 53.08 38.91 55.19 36.61 53.35 35.61 C 52.07 33.97 50.29 36.52 51.71 37.60 M 54.37 37.32 C 54.27 38.11 54.07 39.67 53.97 40.45 C 53.24 40.49 51.77 40.57 51.04 40.61 C 51.15 42.30 51.95 43.47 53.74 43.70 C 53.81 42.91 53.94 41.33 54.01 40.54 C 54.78 40.50 56.32 40.42 57.09 40.38 C 56.95 38.73 56.02 37.68 54.37 37.32 M 59.46 42.85 C 57.90 42.97 55.47 44.02 57.20 45.75 C 57.75 45.92 58.86 46.26 59.41 46.43 C 59.41 45.60 59.42 43.96 59.42 43.14 C 60.06 43.18 61.32 43.27 61.95 43.32 C 61.80 41.30 62.66 40.12 64.73 40.17 C 64.76 40.95 64.82 42.52 64.85 43.31 C 65.52 43.28 66.87 43.23 67.54 43.20 C 67.55 45.00 67.56 46.81 67.56 48.62 C 69.32 48.61 71.09 48.61 72.85 48.62 C 72.91 48.03 73.02 46.84 73.07 46.24 C 72.36 46.13 70.92 45.92 70.20 45.81 C 70.24 45.18 70.33 43.93 70.37 43.30 C 69.67 43.28 68.26 43.25 67.56 43.24 C 67.55 42.55 67.54 41.16 67.54 40.47 C 66.90 40.48 65.61 40.49 64.97 40.50 C 64.91 39.84 64.79 38.50 64.74 37.83 C 62.99 37.83 61.24 37.83 59.49 37.83 C 59.48 39.50 59.47 41.17 59.46 42.85 M 22.16 40.67 C 20.59 41.66 22.36 44.16 23.81 43.02 C 25.33 42.02 23.61 39.54 22.16 40.67 M 70.34 43.24 C 72.09 43.26 73.85 43.28 75.61 43.30 C 75.64 42.35 75.67 41.40 75.71 40.45 C 73.89 40.48 72.08 40.50 70.27 40.51 C 70.29 41.42 70.31 42.33 70.34 43.24 M 10.82 43.23 C 10.79 43.91 10.75 45.27 10.73 45.95 C 12.66 45.94 14.58 45.92 16.51 45.87 C 17.01 42.11 13.09 43.53 10.82 43.23 M 48.59 43.27 C 48.62 45.05 48.63 46.84 48.63 48.62 C 50.46 48.61 52.30 48.61 54.14 48.61 C 54.12 49.32 54.09 50.75 54.07 51.47 C 54.76 51.43 56.13 51.37 56.81 51.33 C 56.51 49.62 57.36 47.43 55.85 46.15 C 53.63 45.81 50.22 46.74 51.33 43.19 C 50.65 43.21 49.28 43.25 48.59 43.27 M 16.38 49.21 C 15.32 50.68 17.81 52.42 18.74 50.79 C 19.80 49.30 17.32 47.57 16.38 49.21 M 59.47 51.38 C 61.28 51.39 63.08 51.40 64.89 51.44 C 64.87 50.73 64.83 49.32 64.81 48.62 C 63.03 48.61 61.25 48.60 59.47 48.60 C 59.47 49.53 59.47 50.45 59.47 51.38 M 75.91 48.60 C 75.78 49.27 75.54 50.60 75.42 51.27 C 73.71 51.44 72.00 51.40 70.30 51.43 C 70.29 52.09 70.28 53.40 70.28 54.06 C 69.61 54.06 68.29 54.06 67.63 54.06 C 67.56 53.29 67.43 51.75 67.37 50.98 C 65.57 51.16 64.55 52.23 64.45 54.08 C 61.04 54.07 57.62 54.06 54.21 53.94 C 54.08 53.25 53.81 51.87 53.68 51.18 C 53.10 51.26 51.94 51.40 51.36 51.48 C 51.37 53.24 51.37 55.01 51.36 56.78 C 50.69 56.75 49.33 56.71 48.66 56.69 C 48.65 57.34 48.64 58.65 48.63 59.30 C 44.53 58.07 44.73 65.73 48.72 64.95 C 48.67 65.61 48.58 66.94 48.54 67.61 C 49.25 67.60 50.67 67.60 51.39 67.60 C 51.38 68.29 51.35 69.68 51.34 70.38 C 53.63 70.02 57.57 71.47 57.04 67.67 C 56.32 67.67 54.89 67.66 54.17 67.66 C 54.16 65.45 54.79 61.58 51.26 62.07 C 51.33 61.35 51.47 59.90 51.54 59.17 C 52.06 59.38 53.10 59.81 53.62 60.02 C 53.78 60.45 54.11 61.32 54.27 61.75 C 57.94 62.67 62.02 62.32 65.70 61.40 C 64.81 60.21 63.48 59.53 62.13 59.00 C 62.22 58.30 62.38 56.90 62.46 56.20 C 64.49 57.07 65.45 59.24 67.49 60.12 C 67.52 60.64 67.59 61.67 67.62 62.19 C 68.30 62.17 69.67 62.15 70.36 62.13 C 70.34 62.81 70.29 64.17 70.27 64.85 C 65.75 64.83 61.24 64.84 56.73 64.83 C 56.73 65.52 56.75 66.91 56.76 67.60 C 61.25 67.61 65.75 67.61 70.24 67.60 C 70.27 68.27 70.33 69.61 70.36 70.29 C 72.10 70.28 73.84 70.28 75.58 70.29 C 75.61 69.62 75.68 68.27 75.71 67.59 C 76.30 67.59 77.48 67.59 78.07 67.59 C 78.04 69.62 79.07 70.65 81.09 70.52 C 81.11 68.62 81.12 66.73 81.13 64.83 C 81.79 64.83 83.10 64.83 83.76 64.83 C 83.76 64.17 83.76 62.83 83.76 62.17 C 83.10 62.17 81.80 62.17 81.15 62.17 C 81.13 61.50 81.11 60.18 81.10 59.51 C 80.42 59.52 79.07 59.52 78.39 59.53 C 78.39 58.81 78.38 57.38 78.38 56.67 C 77.68 56.71 76.28 56.79 75.58 56.83 C 75.63 54.99 75.63 53.15 75.62 51.31 C 76.31 51.34 77.69 51.41 78.38 51.44 C 78.38 50.73 78.39 49.31 78.39 48.60 C 77.77 48.60 76.53 48.60 75.91 48.60 M 22.17 51.65 C 20.76 52.64 22.51 54.77 23.79 53.70 C 25.18 52.75 23.43 50.56 22.17 51.65 M 14.16 54.26 C 12.74 55.08 14.16 57.47 15.54 56.52 C 16.94 55.66 15.58 53.27 14.16 54.26 M 24.48 54.35 C 24.52 54.89 24.61 55.96 24.65 56.50 C 25.17 56.50 26.22 56.50 26.75 56.50 C 28.21 55.07 25.82 52.81 24.48 54.35 M 84.36 54.22 C 82.84 55.21 84.49 57.73 85.97 56.56 C 87.50 55.56 85.85 53.05 84.36 54.22 M 40.55 56.70 C 40.54 57.40 40.53 58.82 40.52 59.52 C 38.72 59.51 36.91 59.50 35.10 59.51 C 35.14 60.17 35.21 61.50 35.24 62.16 C 35.88 62.16 37.17 62.16 37.81 62.16 C 37.81 62.82 37.81 64.14 37.82 64.80 C 38.48 64.83 39.81 64.88 40.47 64.90 C 40.50 64.19 40.56 62.77 40.58 62.06 C 41.25 62.10 42.59 62.18 43.26 62.22 C 43.26 60.39 43.26 58.57 43.26 56.75 C 42.58 56.73 41.23 56.71 40.55 56.70 M 43.36 64.43 C 43.37 65.32 43.38 67.10 43.39 67.99 C 44.76 67.72 47.28 67.03 45.77 65.26 C 45.17 65.05 43.96 64.64 43.36 64.43 M 35.32 68.11 C 34.17 69.58 36.65 71.27 37.65 69.74 C 38.79 68.28 36.30 66.55 35.32 68.11 M 62.22 70.25 C 62.22 70.94 62.23 72.31 62.23 72.99 C 62.88 72.97 64.20 72.93 64.85 72.91 C 64.83 72.24 64.80 70.91 64.78 70.25 C 64.14 70.25 62.86 70.25 62.22 70.25 M 87.05 70.52 C 85.77 71.49 87.39 73.77 88.68 72.67 C 89.92 71.67 88.37 69.42 87.05 70.52 M 72.92 73.08 C 72.92 75.78 72.95 78.47 73.07 81.17 C 75.75 81.17 78.43 81.17 81.11 81.16 C 81.12 78.47 81.13 75.77 81.13 73.08 C 78.39 73.06 75.65 73.06 72.92 73.08 M 83.73 73.36 C 83.75 75.03 83.75 76.70 83.76 78.37 C 84.43 78.38 85.77 78.42 86.44 78.43 C 86.48 76.45 86.51 74.47 86.60 72.49 C 85.89 72.71 84.45 73.14 83.73 73.36 M 75.67 83.71 C 75.66 84.41 75.64 85.81 75.64 86.50 C 77.45 86.50 79.27 86.50 81.09 86.50 C 81.10 85.81 81.13 84.42 81.14 83.73 C 79.32 83.73 77.49 83.72 75.67 83.71 Z" />
<path fill="#030303" opacity="1.00" d=" M 68.09 5.51 C 69.53 4.42 71.31 6.86 69.80 7.88 C 68.37 8.97 66.58 6.51 68.09 5.51 Z" />
<path fill="#030303" opacity="1.00" d=" M 75.64 5.38 C 81.96 5.38 88.27 5.41 94.58 5.36 C 94.59 11.71 94.59 18.06 94.58 24.41 C 88.27 24.38 81.96 24.40 75.64 24.40 C 75.66 18.06 75.66 11.72 75.64 5.38 M 78.40 8.14 C 78.39 12.64 78.39 17.13 78.40 21.63 C 82.88 21.59 87.37 21.61 91.86 21.61 C 91.83 17.13 91.84 12.64 91.85 8.16 C 87.37 8.18 82.88 8.20 78.40 8.14 Z" />
<path fill="#030303" opacity="1.00" d=" M 10.77 10.71 C 13.47 10.71 16.18 10.71 18.89 10.71 C 18.88 13.42 18.89 16.13 18.88 18.84 C 16.18 18.84 13.47 18.84 10.77 18.84 C 10.77 16.13 10.77 13.42 10.77 10.71 Z" />
<path fill="#030303" opacity="1.00" d=" M 81.11 10.71 C 83.82 10.71 86.52 10.71 89.23 10.71 C 89.23 13.42 89.23 16.13 89.23 18.83 C 86.52 18.84 83.82 18.84 81.12 18.84 C 81.11 16.13 81.11 13.42 81.11 10.71 Z" />
<path fill="#030303" opacity="1.00" d=" M 5.42 26.70 C 6.08 26.85 7.38 27.15 8.03 27.30 C 8.20 29.05 8.17 30.82 8.21 32.58 C 7.54 32.49 6.19 32.31 5.51 32.22 C 5.34 30.38 5.42 28.54 5.42 26.70 Z" />
<path fill="#030303" opacity="1.00" d=" M 10.78 26.93 C 15.30 26.93 19.82 26.93 24.34 26.93 C 24.34 27.63 24.34 29.04 24.33 29.74 C 20.74 29.72 17.14 29.73 13.54 29.71 C 13.53 30.38 13.49 31.72 13.48 32.39 C 12.80 32.39 11.44 32.39 10.76 32.39 C 10.77 30.57 10.77 28.75 10.78 26.93 Z" />
<path fill="#030303" opacity="1.00" d=" M 92.11 30.24 C 93.08 28.68 95.57 30.43 94.43 31.87 C 93.44 33.47 90.97 31.70 92.11 30.24 Z" />
<path fill="#030303" opacity="1.00" d=" M 22.17 32.54 C 23.63 31.43 25.36 33.93 23.79 34.88 C 22.30 36.00 20.57 33.52 22.17 32.54 Z" />
<path fill="#030303" opacity="1.00" d=" M 5.61 38.27 C 6.74 36.81 9.04 38.74 7.83 40.12 C 6.73 41.58 4.42 39.63 5.61 38.27 Z" />
<path fill="#030303" opacity="1.00" d=" M 40.98 40.97 C 42.59 40.44 43.16 41.01 42.68 42.69 C 41.03 43.17 40.46 42.60 40.98 40.97 Z" />
<path fill="#030303" opacity="1.00" d=" M 91.83 48.40 C 92.49 48.50 93.82 48.70 94.48 48.79 C 94.67 50.68 94.57 52.59 94.53 54.48 C 90.98 54.52 91.78 50.78 91.83 48.40 Z" />
<path fill="#030303" opacity="1.00" d=" M 54.22 56.70 C 55.97 56.71 57.71 56.71 59.46 56.71 C 59.47 57.65 59.48 58.58 59.49 59.51 C 57.55 59.51 55.61 59.50 53.67 59.54 C 53.81 58.83 54.09 57.41 54.22 56.70 Z" />
<path fill="#030303" opacity="1.00" d=" M 73.28 56.37 C 76.83 56.28 75.37 60.08 75.76 62.32 C 73.88 62.21 71.99 62.13 70.11 62.06 C 69.96 60.14 70.82 59.08 72.86 59.26 C 72.97 58.54 73.18 57.10 73.28 56.37 Z" />
<path fill="#030303" opacity="1.00" d=" M 22.15 59.92 C 23.78 59.43 24.32 60.01 23.78 61.65 C 22.12 62.13 21.57 61.55 22.15 59.92 Z" />
<path fill="#030303" opacity="1.00" d=" M 5.43 62.11 C 6.11 62.13 7.48 62.17 8.16 62.20 C 8.15 65.77 8.16 69.34 8.16 72.91 C 7.48 72.93 6.11 72.98 5.43 73.01 C 5.40 69.37 5.40 65.74 5.43 62.11 Z" />
<path fill="#030303" opacity="1.00" d=" M 16.44 62.10 C 17.04 62.11 18.25 62.13 18.85 62.14 C 18.87 63.99 18.88 65.84 18.87 67.69 C 16.97 67.46 14.80 68.07 13.14 66.91 C 13.41 66.49 13.94 65.66 14.20 65.24 C 14.64 65.04 15.51 64.64 15.95 64.43 C 16.07 63.85 16.32 62.68 16.44 62.10 Z" />
<path fill="#030303" opacity="1.00" d=" M 27.14 62.08 C 27.78 62.11 29.08 62.16 29.72 62.18 C 29.71 62.85 29.70 64.18 29.70 64.85 C 29.05 64.86 27.75 64.87 27.10 64.88 C 27.11 64.18 27.13 62.78 27.14 62.08 Z" />
<path fill="#030303" opacity="1.00" d=" M 49.16 62.31 C 50.63 61.23 52.35 63.71 50.82 64.70 C 49.35 65.77 47.64 63.30 49.16 62.31 Z" />
<path fill="#030303" opacity="1.00" d=" M 76.20 62.38 C 77.62 61.15 79.41 63.59 77.90 64.64 C 76.47 65.85 74.68 63.43 76.20 62.38 Z" />
<path fill="#030303" opacity="1.00" d=" M 22.23 65.22 C 23.59 64.22 25.14 66.51 23.68 67.39 C 22.34 68.39 20.78 66.07 22.23 65.22 Z" />
<path fill="#030303" opacity="1.00" d=" M 10.76 67.64 C 11.46 67.61 12.86 67.55 13.57 67.52 C 13.55 68.15 13.52 69.40 13.50 70.02 C 15.67 69.84 16.64 70.95 16.46 73.06 C 14.57 73.07 12.67 73.07 10.78 73.08 C 10.77 71.26 10.77 69.45 10.76 67.64 Z" />
<path fill="#030303" opacity="1.00" d=" M 48.67 72.95 C 49.35 72.93 50.72 72.89 51.40 72.87 C 51.39 75.51 51.24 78.17 51.47 80.80 C 52.13 80.97 53.44 81.31 54.10 81.48 C 54.10 84.16 54.10 86.85 54.12 89.54 C 53.46 89.42 52.14 89.18 51.48 89.06 C 51.26 86.54 51.42 84.00 51.18 81.48 C 50.70 81.31 49.73 80.95 49.25 80.77 C 48.96 80.17 48.38 78.96 48.09 78.35 C 47.55 78.37 46.47 78.39 45.92 78.41 C 45.91 77.71 45.88 76.31 45.87 75.61 C 46.55 75.62 47.91 75.64 48.59 75.65 C 48.61 74.97 48.65 73.62 48.67 72.95 Z" />
<path fill="#030303" opacity="1.00" d=" M 5.42 94.64 C 5.41 88.29 5.41 81.94 5.42 75.59 C 11.73 75.62 18.04 75.60 24.35 75.60 C 24.35 81.94 24.34 88.28 24.36 94.62 C 18.04 94.62 11.73 94.59 5.42 94.64 M 8.14 78.39 C 8.17 82.87 8.16 87.36 8.15 91.84 C 12.63 91.82 17.11 91.80 21.60 91.86 C 21.61 87.37 21.60 82.87 21.60 78.37 C 17.11 78.41 12.63 78.39 8.14 78.39 Z" />
<path fill="#030303" opacity="1.00" d=" M 35.10 75.56 C 37.83 75.61 40.55 75.61 43.28 75.61 C 43.28 76.29 43.28 77.66 43.29 78.34 C 41.54 78.38 39.79 78.33 38.05 78.52 C 37.93 79.18 37.68 80.50 37.56 81.16 C 38.30 81.15 39.79 81.13 40.53 81.12 C 40.53 82.92 40.53 84.72 40.53 86.52 C 37.83 86.50 35.14 86.50 32.44 86.52 C 32.43 83.79 32.43 81.07 32.44 78.35 C 33.13 78.36 34.51 78.38 35.20 78.39 C 35.18 77.68 35.13 76.26 35.10 75.56 M 35.20 81.13 C 35.19 81.77 35.17 83.06 35.17 83.71 C 35.81 83.72 37.09 83.76 37.73 83.78 C 37.76 83.14 37.81 81.86 37.83 81.23 C 37.17 81.20 35.86 81.15 35.20 81.13 Z" />
<path fill="#030303" opacity="1.00" d=" M 76.27 76.14 C 77.90 75.65 78.44 76.22 77.88 77.86 C 76.25 78.37 75.71 77.79 76.27 76.14 Z" />
<path fill="#030303" opacity="1.00" d=" M 59.65 78.44 C 61.51 78.31 63.37 78.40 65.22 78.45 C 64.99 79.33 64.73 80.21 64.44 81.07 C 62.72 81.18 61.00 81.23 59.28 81.22 C 59.38 80.52 59.56 79.13 59.65 78.44 Z" />
<path fill="#030303" opacity="1.00" d=" M 91.73 78.35 C 92.52 78.38 94.10 78.46 94.89 78.50 C 94.71 80.35 94.25 82.05 91.98 81.14 C 91.92 80.44 91.79 79.04 91.73 78.35 Z" />
<path fill="#030303" opacity="1.00" d=" M 27.03 78.24 C 27.65 78.30 28.89 78.42 29.51 78.48 C 29.88 81.99 29.80 85.56 29.58 89.08 C 28.97 89.19 27.74 89.40 27.13 89.51 C 27.05 85.76 27.10 82.00 27.03 78.24 Z" />
<path fill="#030303" opacity="1.00" d=" M 43.25 78.39 C 43.91 78.39 45.23 78.41 45.89 78.42 C 45.97 78.98 46.13 80.11 46.21 80.67 C 46.60 80.82 47.38 81.11 47.78 81.26 C 48.14 81.82 48.86 82.95 49.22 83.52 C 47.24 83.67 45.26 83.74 43.28 83.78 C 43.27 81.98 43.26 80.18 43.25 78.39 Z" />
<path fill="#030303" opacity="1.00" d=" M 10.77 81.16 C 13.47 81.16 16.18 81.16 18.88 81.16 C 18.89 83.87 18.88 86.58 18.89 89.29 C 16.18 89.29 13.47 89.29 10.77 89.29 C 10.77 86.58 10.77 83.87 10.77 81.16 Z" />
<path fill="#030303" opacity="1.00" d=" M 43.24 89.28 C 43.25 88.58 43.28 87.18 43.29 86.48 C 45.07 86.49 46.85 86.49 48.63 86.49 C 48.64 88.28 48.64 90.07 48.63 91.87 C 48.01 91.86 46.76 91.84 46.13 91.83 C 46.05 92.53 45.90 93.93 45.82 94.64 C 43.27 94.60 40.73 94.70 38.19 94.55 C 38.01 93.87 37.65 92.52 37.47 91.84 C 36.88 91.83 35.71 91.81 35.12 91.80 C 35.14 91.16 35.17 89.90 35.18 89.27 C 37.86 89.27 40.55 89.28 43.24 89.28 Z" />
<path fill="#030303" opacity="1.00" d=" M 54.28 89.47 C 54.85 89.47 55.97 89.46 56.54 89.46 C 56.54 90.00 56.55 91.09 56.56 91.64 C 55.33 93.05 52.94 90.68 54.28 89.47 Z" />
<path fill="#030303" opacity="1.00" d=" M 27.08 91.79 C 27.74 91.81 29.04 91.84 29.70 91.85 C 29.70 92.54 29.70 93.93 29.70 94.62 C 29.06 94.63 27.77 94.65 27.12 94.67 C 27.11 93.95 27.09 92.51 27.08 91.79 Z" />
<path fill="#030303" opacity="1.00" d=" M 51.01 94.42 C 51.17 92.77 51.92 91.03 53.95 91.95 C 53.91 92.65 53.85 94.05 53.82 94.76 C 53.12 94.67 51.71 94.51 51.01 94.42 Z" />
<path fill="#030303" opacity="1.00" d=" M 89.10 92.19 C 89.78 92.06 91.13 91.81 91.81 91.68 C 91.82 92.42 91.84 93.89 91.86 94.62 C 91.22 94.63 89.94 94.65 89.30 94.66 C 89.25 94.05 89.15 92.81 89.10 92.19 Z" />
</g>
</svg>
